<svg width="220" height="33" viewBox="0 0 220 33" fill="none" xmlns="http://www.w3.org/2000/svg">
<path d="M71.566 16.78C71.566 15.1 71.906 13.63 72.586 12.37C73.266 11.09 74.196 10.11 75.376 9.43C76.576 8.73 77.926 8.38 79.426 8.38C80.866 8.38 82.166 8.73 83.326 9.43C84.486 10.13 85.336 11.04 85.876 12.16V2.8H87.976V25H85.876V21.34C85.376 22.48 84.556 23.42 83.416 24.16C82.276 24.88 80.936 25.24 79.396 25.24C77.896 25.24 76.546 24.89 75.346 24.19C74.166 23.49 73.236 22.5 72.556 21.22C71.896 19.94 71.566 18.46 71.566 16.78ZM85.876 16.81C85.876 15.49 85.606 14.33 85.066 13.33C84.526 12.33 83.786 11.56 82.846 11.02C81.926 10.48 80.906 10.21 79.786 10.21C78.626 10.21 77.586 10.47 76.666 10.99C75.746 11.51 75.016 12.27 74.476 13.27C73.956 14.25 73.696 15.42 73.696 16.78C73.696 18.12 73.956 19.3 74.476 20.32C75.016 21.32 75.746 22.09 76.666 22.63C77.586 23.15 78.626 23.41 79.786 23.41C80.906 23.41 81.926 23.14 82.846 22.6C83.786 22.06 84.526 21.29 85.066 20.29C85.606 19.29 85.876 18.13 85.876 16.81ZM109.27 8.62L99.5501 32.71H97.3601L100.54 24.91L93.8201 8.62H96.1301L101.71 22.6L107.11 8.62H109.27ZM122.798 8.32C124.758 8.32 126.358 8.93 127.598 10.15C128.838 11.35 129.458 13.1 129.458 15.4V25H127.388V15.64C127.388 13.86 126.938 12.5 126.038 11.56C125.158 10.62 123.948 10.15 122.408 10.15C120.828 10.15 119.568 10.65 118.628 11.65C117.688 12.65 117.218 14.12 117.218 16.06V25H115.118V8.62H117.218V11.41C117.738 10.41 118.488 9.65 119.468 9.13C120.448 8.59 121.558 8.32 122.798 8.32ZM136.142 16.78C136.142 15.1 136.472 13.63 137.132 12.37C137.812 11.09 138.742 10.11 139.922 9.43C141.122 8.73 142.472 8.38 143.972 8.38C145.532 8.38 146.872 8.74 147.992 9.46C149.132 10.18 149.952 11.1 150.452 12.22V8.62H152.552V25H150.452V21.37C149.932 22.49 149.102 23.42 147.962 24.16C146.842 24.88 145.502 25.24 143.942 25.24C142.462 25.24 141.122 24.89 139.922 24.19C138.742 23.49 137.812 22.5 137.132 21.22C136.472 19.94 136.142 18.46 136.142 16.78ZM150.452 16.81C150.452 15.49 150.182 14.33 149.642 13.33C149.102 12.33 148.362 11.56 147.422 11.02C146.502 10.48 145.482 10.21 144.362 10.21C143.202 10.21 142.162 10.47 141.242 10.99C140.322 11.51 139.592 12.27 139.052 13.27C138.532 14.25 138.272 15.42 138.272 16.78C138.272 18.12 138.532 19.3 139.052 20.32C139.592 21.32 140.322 22.09 141.242 22.63C142.162 23.15 143.202 23.41 144.362 23.41C145.482 23.41 146.502 23.14 147.422 22.6C148.362 22.06 149.102 21.29 149.642 20.29C150.182 19.29 150.452 18.13 150.452 16.81ZM179.846 8.32C181.766 8.32 183.326 8.93 184.526 10.15C185.746 11.35 186.356 13.1 186.356 15.4V25H184.286V15.64C184.286 13.86 183.856 12.5 182.996 11.56C182.136 10.62 180.966 10.15 179.486 10.15C177.946 10.15 176.716 10.66 175.796 11.68C174.876 12.7 174.416 14.18 174.416 16.12V25H172.346V15.64C172.346 13.86 171.916 12.5 171.056 11.56C170.196 10.62 169.016 10.15 167.516 10.15C165.976 10.15 164.746 10.66 163.826 11.68C162.906 12.7 162.446 14.18 162.446 16.12V25H160.346V8.62H162.446V11.44C162.966 10.42 163.706 9.65 164.666 9.13C165.626 8.59 166.696 8.32 167.876 8.32C169.296 8.32 170.536 8.66 171.596 9.34C172.676 10.02 173.456 11.02 173.936 12.34C174.376 11.04 175.126 10.05 176.186 9.37C177.266 8.67 178.486 8.32 179.846 8.32ZM195.07 5.53C194.65 5.53 194.29 5.38 193.99 5.08C193.69 4.78 193.54 4.41 193.54 3.97C193.54 3.53 193.69 3.17 193.99 2.89C194.29 2.59 194.65 2.44 195.07 2.44C195.49 2.44 195.85 2.59 196.15 2.89C196.45 3.17 196.6 3.53 196.6 3.97C196.6 4.41 196.45 4.78 196.15 5.08C195.85 5.38 195.49 5.53 195.07 5.53ZM196.12 8.62V25H194.02V8.62H196.12ZM202.916 16.81C202.916 15.11 203.256 13.63 203.936 12.37C204.616 11.09 205.556 10.11 206.756 9.43C207.956 8.73 209.326 8.38 210.866 8.38C212.886 8.38 214.546 8.88 215.846 9.88C217.166 10.88 218.016 12.24 218.396 13.96H216.146C215.866 12.78 215.256 11.86 214.316 11.2C213.396 10.52 212.246 10.18 210.866 10.18C209.766 10.18 208.776 10.43 207.896 10.93C207.016 11.43 206.316 12.18 205.796 13.18C205.296 14.16 205.046 15.37 205.046 16.81C205.046 18.25 205.296 19.47 205.796 20.47C206.316 21.47 207.016 22.22 207.896 22.72C208.776 23.22 209.766 23.47 210.866 23.47C212.246 23.47 213.396 23.14 214.316 22.48C215.256 21.8 215.866 20.86 216.146 19.66H218.396C218.016 21.34 217.166 22.69 215.846 23.71C214.526 24.73 212.866 25.24 210.866 25.24C209.326 25.24 207.956 24.9 206.756 24.22C205.556 23.52 204.616 22.54 203.936 21.28C203.256 20 202.916 18.51 202.916 16.81Z" fill="#162A35"/>
<path d="M33.5368 10.5484L24.8684 2L4 25.5484L12.1868 23.129L16.3605 25.5484L25.6711 14.5806L31.2895 19.7419L45.0947 5.06452L65 27L52.4789 22L48.6263 25.5484L40.6 17.3226" stroke="#FF3152" stroke-width="2"/>
</svg>
